<svg width="60" height="46" viewBox="0 0 60 46" fill="none" xmlns="http://www.w3.org/2000/svg">
<path d="M2.18884 10.3209V45.6104H7.00838V32.9234C7.00838 32.8866 7.01265 32.8504 7.02121 32.8142C7.03012 32.7783 7.0426 32.7433 7.05971 32.7095C7.07646 32.6756 7.09714 32.6433 7.12173 32.6127C7.14633 32.5821 7.17414 32.554 7.20515 32.5281C7.23652 32.502 7.27038 32.4789 7.3071 32.4584C7.34382 32.4379 7.38267 32.4207 7.42331 32.4068C7.46395 32.3928 7.50601 32.3821 7.5495 32.375C7.59264 32.3679 7.63648 32.3643 7.68033 32.3643H16.779C16.8232 32.3643 16.867 32.3679 16.9102 32.375C16.9537 32.3821 16.9957 32.3928 17.0364 32.4068C17.077 32.4207 17.1158 32.4379 17.1526 32.4584C17.1893 32.4789 17.2231 32.502 17.2542 32.5281C17.2855 32.554 17.3133 32.5821 17.3379 32.6127C17.3625 32.6433 17.3832 32.6756 17.4 32.7095C17.4167 32.7433 17.4295 32.7783 17.4381 32.8142C17.4467 32.8504 17.4513 32.8866 17.4513 32.9234V45.6104H22.2705V10.3209H2.18884ZM19.5855 29.4451C19.5855 29.4819 19.5812 29.5184 19.5723 29.5543C19.5638 29.5902 19.5509 29.6253 19.5342 29.6591C19.5174 29.6932 19.4967 29.7253 19.4721 29.7558C19.4475 29.7864 19.4197 29.8146 19.3884 29.8407C19.3574 29.8665 19.3235 29.8897 19.2868 29.9101C19.2501 29.9306 19.2112 29.9478 19.1706 29.9618C19.1299 29.976 19.0879 29.9864 19.0444 29.9938C19.0012 30.0009 18.9574 30.0045 18.9135 30.0045H5.54612C5.50227 30.0045 5.45843 30.0009 5.41529 29.9938C5.3718 29.9864 5.32974 29.976 5.2891 29.9618C5.24846 29.9478 5.20961 29.9306 5.17289 29.9101C5.13617 29.8897 5.10231 29.8665 5.07094 29.8407C5.03992 29.8146 5.01212 29.7864 4.98752 29.7558C4.96293 29.7253 4.94225 29.6932 4.9255 29.6591C4.90839 29.6253 4.89591 29.5902 4.887 29.5543C4.87844 29.5184 4.87416 29.4819 4.87416 29.4451V25.9671C4.87416 25.9303 4.87844 25.8941 4.887 25.8579C4.89591 25.822 4.90839 25.787 4.9255 25.7532C4.94225 25.719 4.96293 25.687 4.98752 25.6564C5.01212 25.6258 5.03992 25.5977 5.07094 25.5715C5.10231 25.5457 5.13617 25.5226 5.17289 25.5021C5.20961 25.4816 5.24846 25.4644 5.2891 25.4505C5.32974 25.4365 5.3718 25.4258 5.41529 25.4187C5.45843 25.4116 5.50227 25.4077 5.54612 25.4077H18.9135C18.9574 25.4077 19.0012 25.4116 19.0444 25.4187C19.0879 25.4258 19.1299 25.4365 19.1706 25.4505C19.2112 25.4644 19.2501 25.4816 19.2868 25.5021C19.3235 25.5226 19.3574 25.5457 19.3884 25.5715C19.4197 25.5977 19.4475 25.6258 19.4721 25.6564C19.4967 25.687 19.5174 25.719 19.5342 25.7532C19.5509 25.787 19.5638 25.822 19.5723 25.8579C19.5812 25.8941 19.5855 25.9303 19.5855 25.9671V29.4451ZM19.5855 22.8972C19.5855 22.9337 19.5812 22.9702 19.5723 23.0061C19.5638 23.0423 19.5509 23.0773 19.5342 23.1111C19.5174 23.145 19.4967 23.1773 19.4721 23.2079C19.4475 23.2381 19.4197 23.2666 19.3884 23.2924C19.3574 23.3186 19.3235 23.3417 19.2868 23.3619C19.2501 23.3824 19.2112 23.3996 19.1706 23.4138C19.1299 23.4278 19.0879 23.4384 19.0444 23.4456C19.0012 23.4527 18.9574 23.4563 18.9135 23.4563H5.54612C5.50227 23.4563 5.45843 23.4527 5.41529 23.4456C5.3718 23.4384 5.32974 23.4278 5.2891 23.4138C5.24846 23.3996 5.20961 23.3824 5.17289 23.3619C5.13617 23.3417 5.10231 23.3186 5.07094 23.2924C5.03992 23.2666 5.01212 23.2381 4.98752 23.2079C4.96293 23.1773 4.94225 23.145 4.9255 23.1111C4.90839 23.0773 4.89591 23.0423 4.887 23.0061C4.87844 22.9702 4.87416 22.9337 4.87416 22.8972V19.4189C4.87416 19.3821 4.87844 19.3459 4.887 19.31C4.89591 19.2737 4.90839 19.2387 4.9255 19.2049C4.94225 19.1711 4.96293 19.1387 4.98752 19.1082C5.01212 19.0776 5.03992 19.0494 5.07094 19.0236C5.10231 18.9975 5.13617 18.9743 5.17289 18.9538C5.20961 18.9337 5.24846 18.9165 5.2891 18.9022C5.32974 18.8883 5.3718 18.8776 5.41529 18.8705C5.45843 18.8633 5.50227 18.8598 5.54612 18.8598H18.9135C18.9574 18.8598 19.0012 18.8633 19.0444 18.8705C19.0879 18.8776 19.1299 18.8883 19.1706 18.9022C19.2112 18.9165 19.2501 18.9337 19.2868 18.9538C19.3235 18.9743 19.3574 18.9975 19.3884 19.0236C19.4197 19.0494 19.4475 19.0776 19.4721 19.1082C19.4967 19.1387 19.5174 19.1711 19.5342 19.2049C19.5509 19.2387 19.5638 19.2737 19.5723 19.31C19.5812 19.3459 19.5855 19.3821 19.5855 19.4189V22.8972ZM19.5855 16.3489C19.5855 16.3857 19.5812 16.4219 19.5723 16.4581C19.5638 16.494 19.5509 16.529 19.5342 16.5629C19.5174 16.5967 19.4967 16.629 19.4721 16.6596C19.4475 16.6902 19.4197 16.7184 19.3884 16.7445C19.3574 16.7703 19.3235 16.7934 19.2868 16.8139C19.2501 16.8344 19.2112 16.8516 19.1706 16.8656C19.1299 16.8795 19.0879 16.8902 19.0444 16.8973C19.0012 16.9044 18.9574 16.908 18.9135 16.908H5.54612C5.50227 16.908 5.45843 16.9044 5.41529 16.8973C5.3718 16.8902 5.32974 16.8795 5.2891 16.8656C5.24846 16.8516 5.20961 16.8344 5.17289 16.8139C5.13617 16.7934 5.10231 16.7703 5.07094 16.7445C5.03992 16.7184 5.01212 16.6902 4.98752 16.6596C4.96293 16.629 4.94225 16.5967 4.9255 16.5629C4.90839 16.529 4.89591 16.494 4.887 16.4581C4.87844 16.4219 4.87416 16.3857 4.87416 16.3489V12.8718C4.87416 12.8353 4.87844 12.7988 4.887 12.7629C4.89591 12.7267 4.90839 12.6917 4.9255 12.6578C4.94225 12.624 4.96293 12.5917 4.98752 12.5611C5.01212 12.5305 5.03992 12.5023 5.07094 12.4765C5.10231 12.4504 5.13617 12.4272 5.17289 12.4068C5.20961 12.3866 5.24846 12.3694 5.2891 12.3551C5.32974 12.3412 5.3718 12.3305 5.41529 12.3234C5.45843 12.3163 5.50227 12.3127 5.54612 12.3127H18.9135C18.9574 12.3127 19.0012 12.3163 19.0444 12.3234C19.0879 12.3305 19.1299 12.3412 19.1706 12.3551C19.2112 12.3694 19.2501 12.3866 19.2868 12.4068C19.3235 12.4272 19.3574 12.4504 19.3884 12.4765C19.4197 12.5023 19.4475 12.5305 19.4721 12.5611C19.4967 12.5917 19.5174 12.624 19.5342 12.6578C19.5509 12.6917 19.5638 12.7267 19.5723 12.7629C19.5812 12.7988 19.5855 12.8353 19.5855 12.8718V16.3489Z" fill="#01B658"/>
<path d="M0.548035 5.83258H23.9117V9.20226H0.548035V5.83258Z" fill="#01B658"/>
<path d="M8.35236 33.4771H16.1071V45.6103H8.35236V33.4771Z" fill="#01B658"/>
<path d="M6.21808 26.5262H18.2412V28.8827H6.21808V26.5262Z" fill="#01B658"/>
<path d="M6.21808 19.9779H18.2412V22.3345H6.21808V19.9779Z" fill="#01B658"/>
<path d="M6.21808 13.4311H18.2412V15.7862H6.21808V13.4311Z" fill="#01B658"/>
<mask id="mask0_47_174" style="mask-type:luminance" maskUnits="userSpaceOnUse" x="30" y="0" width="8" height="16">
<path d="M30.9367 0.778259H37.6898V15.763H30.9367V0.778259Z" fill="white"/>
</mask>
<g mask="url(#mask0_47_174)">
<path d="M37.6096 15.7618H31.0066L32.2578 0.776428H36.3583L37.6096 15.7618Z" fill="#01B658"/>
</g>
<path d="M23.6148 16.8801H59.6829V20.3314H23.6148V16.8801Z" fill="#01B658"/>
<mask id="mask1_47_174" style="mask-type:luminance" maskUnits="userSpaceOnUse" x="45" y="0" width="8" height="16">
<path d="M45.6293 0.778259H52.2911V15.763H45.6293V0.778259Z" fill="white"/>
</mask>
<g mask="url(#mask1_47_174)">
<path d="M52.2911 15.7618H45.6882L46.9394 0.776428H51.0399L52.2911 15.7618Z" fill="#01B658"/>
</g>
<path d="M23.6148 21.4498V45.6071H58.3817V21.4498H23.6148ZM51.248 32.5465V42.3312C51.248 42.368 51.2437 42.4042 51.2351 42.4404C51.2266 42.4763 51.2138 42.5113 51.197 42.5452C51.1799 42.5793 51.1592 42.6113 51.135 42.6419C51.1104 42.6725 51.0826 42.7007 51.0512 42.7268C51.0202 42.7526 50.986 42.7757 50.9496 42.7962C50.9129 42.8167 50.874 42.8339 50.8334 42.8478C50.7924 42.8618 50.7503 42.8725 50.7072 42.8796C50.6641 42.8867 50.6202 42.8906 50.576 42.8906H35.736C35.6918 42.8906 35.6483 42.8867 35.6048 42.8796C35.5617 42.8725 35.5196 42.8618 35.4786 42.8478C35.438 42.8339 35.3991 42.8167 35.3628 42.7962C35.3261 42.7757 35.2918 42.7526 35.2608 42.7268C35.2295 42.7007 35.2016 42.6725 35.177 42.6419C35.1528 42.6113 35.1321 42.5793 35.115 42.5452C35.0983 42.5113 35.0854 42.4763 35.0769 42.4404C35.0683 42.4042 35.064 42.368 35.064 42.3312V39.2891H31.407C31.3628 39.2891 31.3193 39.2856 31.2758 39.2784C31.2327 39.2713 31.1906 39.2606 31.15 39.2467C31.109 39.2327 31.0705 39.2155 31.0337 39.1951C30.997 39.1746 30.9632 39.1514 30.9318 39.1253C30.9008 39.0995 30.873 39.0713 30.8484 39.0407C30.8238 39.0102 30.8031 38.9778 30.7864 38.944C30.7692 38.9102 30.7564 38.8751 30.7479 38.8392C30.7393 38.803 30.735 38.7668 30.735 38.73V28.9453C30.5358 28.8222 30.3564 28.6815 30.1964 28.5236C30.0367 28.3655 29.9012 28.1942 29.7897 28.0097C29.6781 27.8251 29.5936 27.6325 29.5362 27.4316C29.4788 27.2307 29.4503 27.0268 29.4503 26.8203C29.4503 26.7336 29.4556 26.6469 29.4656 26.5606C29.476 26.4742 29.4913 26.3885 29.512 26.3036C29.5323 26.2184 29.5576 26.1344 29.5879 26.0514C29.6182 25.9683 29.6535 25.8867 29.6934 25.8065C29.7333 25.7264 29.7779 25.6481 29.8267 25.5715C29.8759 25.4952 29.9297 25.4207 29.9875 25.3486C30.0456 25.2765 30.1076 25.2068 30.1736 25.1397C30.2399 25.0726 30.3098 25.0085 30.3835 24.9471C30.4573 24.8857 30.5343 24.8275 30.6149 24.7726C30.6955 24.7174 30.7792 24.6658 30.8658 24.6174C30.9525 24.5693 31.0416 24.5248 31.1336 24.4839C31.2255 24.4429 31.3196 24.4058 31.4159 24.3723C31.5121 24.3391 31.6102 24.31 31.71 24.2848C31.8098 24.2595 31.9107 24.2382 32.013 24.2212C32.1153 24.2043 32.2183 24.1916 32.322 24.183C32.4258 24.1744 32.5299 24.1699 32.634 24.1696H45.02C45.0845 24.1696 45.1487 24.1711 45.2129 24.1744C45.2774 24.1773 45.3412 24.1821 45.405 24.1886C45.4692 24.1948 45.5326 24.2029 45.5961 24.2126C45.6592 24.2221 45.7223 24.2334 45.7847 24.2462C45.847 24.2589 45.9091 24.2732 45.9707 24.2889C46.032 24.3049 46.0926 24.3224 46.1529 24.3414C46.2131 24.3604 46.2727 24.3809 46.3311 24.4029C46.3899 24.4248 46.4477 24.4483 46.5047 24.4732C46.5618 24.4978 46.6177 24.5242 46.6726 24.5521C46.7279 24.5797 46.7817 24.6088 46.8348 24.6394C46.8876 24.6697 46.9393 24.7014 46.9899 24.7346C47.0405 24.7676 47.0901 24.802 47.1382 24.8376C47.186 24.8732 47.233 24.9097 47.2783 24.9477C47.3236 24.9857 47.3678 25.0249 47.4102 25.0649C47.453 25.105 47.4939 25.1462 47.5335 25.1884C47.5731 25.2305 47.6109 25.2738 47.6476 25.3181C47.6839 25.3623 47.7185 25.4071 47.7517 25.4531C47.7848 25.4991 47.8162 25.5457 47.8461 25.5932C47.8757 25.6406 47.9035 25.6887 47.9299 25.7377C47.9559 25.7866 47.9805 25.8362 48.003 25.8864C48.0258 25.9365 48.0465 25.9873 48.0654 26.0383C48.0843 26.0896 48.101 26.141 48.1164 26.1932C48.1313 26.2451 48.1445 26.2977 48.1559 26.3502C48.1673 26.403 48.1766 26.4558 48.1841 26.5093C48.1916 26.5624 48.1969 26.6158 48.2005 26.6692C48.204 26.7226 48.2055 26.776 48.2051 26.8298C48.2048 26.8832 48.2026 26.9366 48.1983 26.99C48.1941 27.0434 48.188 27.0968 48.1798 27.15C48.1716 27.2031 48.1613 27.2559 48.1495 27.3084C48.1374 27.3609 48.1235 27.4132 48.1078 27.4651C48.0918 27.517 48.0743 27.5687 48.0547 27.6197C48.0351 27.6705 48.0137 27.7209 47.9902 27.7711H49.349C49.5155 27.7711 49.6809 27.7817 49.8453 27.8031C50.0096 27.8248 50.1707 27.8568 50.329 27.8993C50.4876 27.942 50.6409 27.9945 50.7892 28.0571C50.9375 28.1198 51.0794 28.1916 51.2141 28.2726C51.3492 28.3536 51.4754 28.4429 51.5934 28.5406C51.7118 28.6382 51.8198 28.7427 51.9181 28.8542C52.0165 28.9661 52.1039 29.0833 52.1802 29.2065C52.2561 29.3296 52.3206 29.4569 52.3727 29.5881C52.4251 29.7196 52.4646 29.8537 52.4917 29.9902C52.5188 30.127 52.5327 30.2644 52.5338 30.403C52.5349 30.5413 52.5231 30.679 52.4981 30.8161C52.4735 30.9529 52.4358 31.0873 52.3858 31.2194C52.3356 31.3514 52.2732 31.4794 52.1991 31.6031C52.1249 31.7271 52.0394 31.8453 51.9427 31.958C51.8461 32.0708 51.7396 32.1767 51.6233 32.2756C51.5068 32.3744 51.3817 32.4652 51.248 32.5477V32.5465Z" fill="#01B658"/>
<path d="M50.6501 29.3368C50.5646 29.2656 50.4719 29.2021 50.3714 29.1463C50.2708 29.0905 50.165 29.0433 50.053 29.005C49.9415 28.9664 49.8263 28.9377 49.708 28.9181C49.5896 28.8988 49.4698 28.889 49.349 28.8893H36.9615C36.8713 28.8896 36.7811 28.8949 36.6917 28.9062C36.6022 28.9172 36.5141 28.9338 36.4275 28.9558C36.3412 28.9777 36.2568 29.0047 36.1751 29.0371C36.0935 29.0691 36.0151 29.1062 35.9399 29.1481C35.8646 29.1899 35.7933 29.2362 35.7263 29.2869C35.6593 29.3374 35.5973 29.3917 35.5399 29.4502C35.4825 29.5083 35.4305 29.5698 35.3841 29.6342C35.3374 29.6988 35.2971 29.7659 35.2626 29.8354C35.2276 29.9051 35.1995 29.9763 35.1774 30.0493C35.1556 30.1223 35.1403 30.1965 35.1314 30.2713C35.1225 30.3461 35.12 30.4212 35.1246 30.4965C35.1289 30.5716 35.1399 30.6461 35.1578 30.72C35.1752 30.7939 35.1995 30.8663 35.2298 30.9372C35.2601 31.0081 35.2968 31.0767 35.3392 31.1432C35.382 31.2096 35.4301 31.2731 35.4839 31.3334C35.5378 31.3939 35.5966 31.4509 35.6607 31.5043C35.7787 31.6025 35.9103 31.6856 36.0557 31.7536H36.0625C36.0799 31.7613 36.096 31.7702 36.1124 31.7794C36.1302 31.7892 36.1473 31.7999 36.1634 31.8118C36.1794 31.8221 36.1947 31.8331 36.209 31.8453C36.2528 31.8812 36.2899 31.9216 36.3206 31.9661L36.338 31.9952C36.3448 32.0064 36.3516 32.0174 36.3569 32.0287C36.3623 32.04 36.3676 32.0509 36.3715 32.0622C36.3758 32.0735 36.3812 32.0857 36.3851 32.0981C36.389 32.1103 36.3919 32.1216 36.3944 32.1329C36.3951 32.1364 36.3951 32.1403 36.3944 32.1438C36.3944 32.1572 36.3944 32.1708 36.4011 32.1854C36.4026 32.2044 36.4026 32.2234 36.4011 32.2424V41.7698H49.904V32.2444C49.903 32.207 49.9072 32.1696 49.9161 32.1329C49.9161 32.1147 49.9268 32.0969 49.9322 32.0791L49.9525 32.032L49.9807 31.9839C50.0003 31.9515 50.0245 31.9219 50.0534 31.8946C50.0666 31.8812 50.0801 31.8687 50.0951 31.8566C50.1382 31.8183 50.1874 31.7865 50.2427 31.7613H50.2509C50.3122 31.7325 50.3717 31.7008 50.4288 31.6661C50.4858 31.6313 50.5403 31.5942 50.5924 31.5542C50.6444 31.5144 50.6936 31.4723 50.7396 31.4278C50.7856 31.3829 50.8287 31.3364 50.8683 31.2877C50.9079 31.239 50.9442 31.1886 50.9767 31.1366C51.0094 31.0844 51.0383 31.0307 51.0636 30.9758C51.0889 30.9209 51.1103 30.8651 51.1278 30.8081C51.1453 30.7511 51.1588 30.6933 51.1684 30.6351C51.1781 30.5769 51.1834 30.5182 51.1848 30.4594C51.1863 30.4007 51.1838 30.3419 51.177 30.2835C51.1702 30.225 51.1595 30.1668 51.1449 30.1093C51.1299 30.0517 51.1114 29.9953 51.0886 29.9395C51.0661 29.8837 51.0398 29.8291 51.0098 29.776C50.9795 29.7229 50.946 29.6712 50.9086 29.6214C50.8715 29.5712 50.8309 29.5232 50.7867 29.4772C50.7428 29.4312 50.6961 29.3872 50.6458 29.3457L50.6501 29.3368ZM39.6793 39.626H39.0191C38.9752 39.626 38.9314 39.6224 38.8883 39.615C38.8448 39.6079 38.8027 39.5975 38.7621 39.5833C38.7214 39.5693 38.6826 39.5521 38.6459 39.5316C38.6091 39.5111 38.5753 39.488 38.5439 39.4622C38.5129 39.4361 38.4851 39.4079 38.4605 39.3773C38.4359 39.3467 38.4152 39.3147 38.3985 39.2806C38.3813 39.2467 38.3689 39.2117 38.3603 39.1758C38.3514 39.1399 38.3471 39.1034 38.3471 39.0666C38.3471 39.0301 38.3514 38.9936 38.3603 38.9577C38.3689 38.9215 38.3813 38.8868 38.3985 38.8526C38.4152 38.8188 38.4359 38.7865 38.4605 38.7559C38.4851 38.7256 38.5129 38.6971 38.5439 38.6713C38.5753 38.6452 38.6091 38.6221 38.6459 38.6019C38.6826 38.5814 38.7214 38.5642 38.7621 38.5499C38.8027 38.536 38.8448 38.5253 38.8883 38.5182C38.9314 38.5111 38.9752 38.5075 39.0191 38.5075H39.6793C39.7231 38.5075 39.767 38.5111 39.8101 38.5182C39.8536 38.5253 39.8957 38.536 39.9363 38.5499C39.9769 38.5642 40.0158 38.5814 40.0525 38.6019C40.0892 38.6221 40.1231 38.6452 40.1545 38.6713C40.1855 38.6971 40.2133 38.7256 40.2379 38.7559C40.2625 38.7865 40.2831 38.8188 40.2999 38.8526C40.317 38.8868 40.3295 38.9215 40.338 38.9577C40.3469 38.9936 40.3512 39.0301 40.3512 39.0666C40.3512 39.1034 40.3469 39.1399 40.338 39.1758C40.3295 39.2117 40.317 39.2467 40.2999 39.2806C40.2831 39.3147 40.2625 39.3467 40.2379 39.3773C40.2133 39.4079 40.1855 39.4361 40.1545 39.4622C40.1231 39.488 40.0892 39.5111 40.0525 39.5316C40.0158 39.5521 39.9769 39.5693 39.9363 39.5833C39.8957 39.5975 39.8536 39.6079 39.8101 39.615C39.767 39.6224 39.7231 39.626 39.6793 39.626ZM39.6793 36.9418H39.0191C38.9752 36.9418 38.9314 36.9382 38.8883 36.9311C38.8448 36.924 38.8027 36.9133 38.7621 36.8991C38.7214 36.8851 38.6826 36.8679 38.6459 36.8474C38.6091 36.8273 38.5753 36.8038 38.5439 36.778C38.5129 36.7519 38.4851 36.7237 38.4605 36.6931C38.4359 36.6629 38.4152 36.6305 38.3985 36.5967C38.3813 36.5626 38.3689 36.5278 38.3603 36.4916C38.3514 36.4557 38.3471 36.4192 38.3471 36.3827C38.3471 36.3459 38.3514 36.3094 38.3603 36.2735C38.3689 36.2376 38.3813 36.2026 38.3985 36.1685C38.4152 36.1346 38.4359 36.1026 38.4605 36.072C38.4851 36.0414 38.5129 36.0133 38.5439 35.9871C38.5753 35.9613 38.6091 35.9382 38.6459 35.9177C38.6826 35.8972 38.7214 35.88 38.7621 35.8661C38.8027 35.8518 38.8448 35.8414 38.8883 35.834C38.9314 35.8269 38.9752 35.8233 39.0191 35.8233H39.6793C39.7231 35.8233 39.767 35.8269 39.8101 35.834C39.8536 35.8414 39.8957 35.8518 39.9363 35.8661C39.9769 35.88 40.0158 35.8972 40.0525 35.9177C40.0892 35.9379 40.1231 35.9613 40.1545 35.9871C40.1855 36.0133 40.2133 36.0414 40.2379 36.072C40.2625 36.1026 40.2831 36.1346 40.2999 36.1685C40.317 36.2026 40.3295 36.2376 40.338 36.2735C40.3469 36.3094 40.3512 36.3459 40.3512 36.3827C40.3512 36.4192 40.3469 36.4557 40.338 36.4916C40.3295 36.5278 40.317 36.5626 40.2999 36.5967C40.2831 36.6305 40.2625 36.6629 40.2379 36.6931C40.2133 36.7237 40.1855 36.7519 40.1545 36.778C40.1231 36.8038 40.0892 36.8273 40.0525 36.8474C40.0158 36.8679 39.9769 36.8851 39.9363 36.8991C39.8957 36.9133 39.8536 36.924 39.8101 36.9311C39.767 36.9382 39.7231 36.9418 39.6793 36.9418ZM39.6793 34.252H39.0191C38.9752 34.252 38.9314 34.2484 38.8883 34.2413C38.8448 34.2342 38.8027 34.2235 38.7621 34.2096C38.7214 34.1953 38.6826 34.1781 38.6459 34.1579C38.6091 34.1374 38.5753 34.1143 38.5439 34.0882C38.5129 34.0624 38.4851 34.0342 38.4605 34.0036C38.4359 33.973 38.4152 33.9407 38.3985 33.9069C38.3813 33.873 38.3689 33.838 38.3603 33.8018C38.3514 33.7659 38.3471 33.7297 38.3471 33.6929C38.3471 33.6561 38.3514 33.6199 38.3603 33.5837C38.3689 33.5478 38.3813 33.5128 38.3985 33.4789C38.4152 33.4448 38.4359 33.4128 38.4605 33.3822C38.4851 33.3516 38.5129 33.3234 38.5439 33.2973C38.5753 33.2715 38.6091 33.2484 38.6459 33.2279C38.6826 33.2074 38.7214 33.1902 38.7621 33.1763C38.8027 33.1623 38.8448 33.1516 38.8883 33.1445C38.9314 33.1374 38.9752 33.1338 39.0191 33.1338H39.6793C39.7231 33.1338 39.767 33.1374 39.8101 33.1445C39.8536 33.1516 39.8957 33.1623 39.9363 33.1763C39.9769 33.1902 40.0158 33.2074 40.0525 33.2279C40.0892 33.2484 40.1231 33.2715 40.1545 33.2973C40.1855 33.3234 40.2133 33.3516 40.2379 33.3822C40.2625 33.4128 40.2831 33.4448 40.2999 33.4789C40.317 33.5128 40.3295 33.5478 40.338 33.5837C40.3469 33.6199 40.3512 33.6561 40.3512 33.6929C40.3512 33.7297 40.3469 33.7659 40.338 33.8018C40.3295 33.838 40.317 33.873 40.2999 33.9069C40.2831 33.9407 40.2625 33.973 40.2379 34.0036C40.2133 34.0342 40.1855 34.0624 40.1545 34.0882C40.1231 34.1143 40.0892 34.1374 40.0525 34.1579C40.0158 34.1781 39.9769 34.1953 39.9363 34.2096C39.8957 34.2235 39.8536 34.2342 39.8101 34.2413C39.767 34.2484 39.7231 34.252 39.6793 34.252ZM43.4853 39.6304H42.8255C42.7813 39.6304 42.7375 39.6269 42.6943 39.6198C42.6508 39.6123 42.6091 39.6019 42.5681 39.5877C42.5275 39.5738 42.4886 39.5565 42.4519 39.5361C42.4152 39.5156 42.3813 39.4924 42.3503 39.4666C42.319 39.4405 42.2912 39.4123 42.2666 39.3818C42.242 39.3512 42.2213 39.3191 42.2045 39.2853C42.1878 39.2512 42.1749 39.2162 42.1664 39.1803C42.1578 39.1443 42.1536 39.1078 42.1536 39.071C42.1536 39.0345 42.1578 38.998 42.1664 38.9621C42.1749 38.9259 42.1878 38.8912 42.2045 38.8571C42.2213 38.8233 42.242 38.7909 42.2666 38.7606C42.2912 38.7301 42.319 38.7019 42.3503 38.6758C42.3813 38.6499 42.4152 38.6265 42.4519 38.6063C42.4886 38.5858 42.5275 38.5686 42.5681 38.5547C42.6091 38.5404 42.6508 38.5298 42.6943 38.5226C42.7375 38.5155 42.7813 38.512 42.8255 38.512H43.4853C43.5296 38.512 43.573 38.5155 43.6165 38.5226C43.6597 38.5298 43.7017 38.5404 43.7424 38.5547C43.7834 38.5686 43.8219 38.5858 43.8586 38.6063C43.8953 38.6265 43.9292 38.6499 43.9605 38.6758C43.9915 38.7019 44.0193 38.7301 44.0439 38.7606C44.0685 38.7909 44.0892 38.8233 44.106 38.8571C44.1231 38.8912 44.1356 38.9259 44.1445 38.9621C44.153 38.998 44.1573 39.0345 44.1573 39.071C44.1573 39.1078 44.153 39.1443 44.1445 39.1803C44.1356 39.2162 44.1231 39.2512 44.106 39.2853C44.0892 39.3191 44.0685 39.3512 44.0439 39.3818C44.0193 39.4123 43.9915 39.4405 43.9605 39.4666C43.9292 39.4924 43.8953 39.5156 43.8586 39.5361C43.8219 39.5565 43.7834 39.5738 43.7424 39.5877C43.7017 39.6019 43.6597 39.6123 43.6165 39.6198C43.573 39.6269 43.5296 39.6304 43.4853 39.6304ZM43.4853 36.9463H42.8255C42.7813 36.9463 42.7375 36.9427 42.6943 36.9356C42.6508 36.9285 42.6091 36.9178 42.5681 36.9038C42.5275 36.8896 42.4886 36.8724 42.4519 36.8519C42.4152 36.8317 42.3813 36.8086 42.3503 36.7825C42.319 36.7566 42.2912 36.7281 42.2666 36.6976C42.242 36.6673 42.2213 36.635 42.2045 36.6011C42.1878 36.567 42.1749 36.5323 42.1664 36.4961C42.1578 36.4602 42.1536 36.4237 42.1536 36.3872C42.1536 36.3504 42.1578 36.3139 42.1664 36.278C42.1749 36.2421 42.1878 36.207 42.2045 36.1732C42.2213 36.1391 42.242 36.107 42.2666 36.0765C42.2912 36.0459 42.319 36.0177 42.3503 35.9916C42.3813 35.9658 42.4152 35.9426 42.4519 35.9222C42.4886 35.9017 42.5275 35.8845 42.5681 35.8705C42.6091 35.8563 42.6508 35.8459 42.6943 35.8385C42.7375 35.8313 42.7813 35.8278 42.8255 35.8278H43.4853C43.5296 35.8278 43.573 35.8313 43.6165 35.8385C43.6597 35.8459 43.7017 35.8563 43.7424 35.8705C43.7834 35.8845 43.8219 35.9017 43.8586 35.9222C43.8953 35.9426 43.9292 35.9658 43.9605 35.9916C43.9915 36.0177 44.0193 36.0459 44.0439 36.0765C44.0685 36.107 44.0892 36.1391 44.106 36.1729C44.1231 36.207 44.1356 36.2421 44.1445 36.278C44.153 36.3139 44.1573 36.3504 44.1573 36.3872C44.1573 36.4237 44.153 36.4602 44.1445 36.4961C44.1356 36.5323 44.1231 36.567 44.106 36.6011C44.0892 36.635 44.0685 36.6673 44.0439 36.6976C44.0193 36.7281 43.9915 36.7566 43.9605 36.7825C43.9292 36.8086 43.8953 36.8317 43.8586 36.8519C43.8219 36.8724 43.7834 36.8896 43.7424 36.9038C43.7017 36.9178 43.6597 36.9285 43.6165 36.9356C43.573 36.9427 43.5296 36.9463 43.4853 36.9463ZM43.4853 34.2564H42.8255C42.7813 34.2564 42.7375 34.2529 42.6943 34.2458C42.6508 34.2386 42.6091 34.228 42.5681 34.214C42.5275 34.1998 42.4886 34.1826 42.4519 34.1624C42.4152 34.1419 42.3813 34.1188 42.3503 34.0926C42.319 34.0668 42.2912 34.0386 42.2666 34.0081C42.242 33.9775 42.2213 33.9451 42.2045 33.9113C42.1878 33.8775 42.1749 33.8425 42.1664 33.8066C42.1578 33.7704 42.1536 33.7342 42.1536 33.6974C42.1536 33.6606 42.1578 33.6244 42.1664 33.5882C42.1749 33.5522 42.1878 33.5172 42.2045 33.4834C42.2213 33.4496 42.242 33.4172 42.2666 33.3867C42.2912 33.3561 42.319 33.3279 42.3503 33.3021C42.3813 33.276 42.4152 33.2528 42.4519 33.2323C42.4886 33.2119 42.5275 33.1947 42.5681 33.1807C42.6091 33.1668 42.6508 33.1561 42.6943 33.1489C42.7375 33.1418 42.7813 33.1383 42.8255 33.1383H43.4853C43.5296 33.1383 43.573 33.1418 43.6165 33.1489C43.6597 33.1561 43.7017 33.1668 43.7424 33.1807C43.7834 33.1947 43.8219 33.2119 43.8586 33.2323C43.8953 33.2528 43.9292 33.276 43.9605 33.3021C43.9915 33.3279 44.0193 33.3561 44.0439 33.3867C44.0685 33.4172 44.0892 33.4496 44.106 33.4834C44.1231 33.5172 44.1356 33.5522 44.1445 33.5882C44.153 33.6244 44.1573 33.6606 44.1573 33.6974C44.1573 33.7342 44.153 33.7704 44.1445 33.8066C44.1356 33.8425 44.1231 33.8775 44.106 33.9113C44.0892 33.9451 44.0685 33.9775 44.0439 34.0081C44.0193 34.0386 43.9915 34.0668 43.9605 34.0926C43.9292 34.1188 43.8953 34.1419 43.8586 34.1624C43.8219 34.1826 43.7834 34.1998 43.7424 34.214C43.7017 34.228 43.6597 34.2386 43.6165 34.2458C43.573 34.2529 43.5296 34.2564 43.4853 34.2564ZM47.2914 39.6349H46.6316C46.5874 39.6349 46.5435 39.6313 46.5004 39.6242C46.4573 39.6171 46.4152 39.6064 46.3742 39.5922C46.3336 39.5782 46.2947 39.561 46.258 39.5405C46.2216 39.5203 46.1874 39.4969 46.1564 39.4711C46.125 39.445 46.0972 39.4168 46.0726 39.3862C46.0484 39.3559 46.0277 39.3236 46.0106 39.2898C45.9939 39.2556 45.981 39.2206 45.9725 39.1847C45.9639 39.1488 45.9596 39.1123 45.9596 39.0758C45.9596 39.039 45.9639 39.0025 45.9725 38.9666C45.981 38.9307 45.9939 38.8957 46.0106 38.8615C46.0277 38.8277 46.0484 38.7957 46.0726 38.7651C46.0972 38.7345 46.125 38.7063 46.1564 38.6802C46.1874 38.6544 46.2216 38.631 46.258 38.6108C46.2947 38.5903 46.3336 38.5731 46.3742 38.5591C46.4152 38.5449 46.4573 38.5345 46.5004 38.5271C46.5435 38.52 46.5874 38.5164 46.6316 38.5164H47.2914C47.3356 38.5164 47.3791 38.52 47.4226 38.5271C47.4657 38.5345 47.5078 38.5449 47.5484 38.5591C47.5894 38.5731 47.6279 38.5903 47.6647 38.6108C47.7014 38.631 47.7352 38.6544 47.7666 38.6802C47.7976 38.7063 47.8258 38.7345 47.85 38.7651C47.8746 38.7957 47.8953 38.8277 47.9124 38.8615C47.9292 38.8957 47.942 38.9307 47.9505 38.9666C47.9591 39.0025 47.9634 39.039 47.9634 39.0758C47.9634 39.1123 47.9591 39.1488 47.9505 39.1847C47.942 39.2206 47.9292 39.2556 47.9124 39.2898C47.8953 39.3236 47.8746 39.3559 47.85 39.3862C47.8258 39.4168 47.7976 39.445 47.7666 39.4711C47.7352 39.4969 47.7014 39.5203 47.6647 39.5405C47.6279 39.561 47.5894 39.5782 47.5484 39.5922C47.5078 39.6064 47.4657 39.6171 47.4226 39.6242C47.3791 39.6313 47.3356 39.6349 47.2914 39.6349ZM47.2914 36.9507H46.6316C46.5874 36.9507 46.5435 36.9472 46.5004 36.94C46.4573 36.9329 46.4152 36.9222 46.3742 36.9083C46.3336 36.894 46.2947 36.8768 46.258 36.8563C46.2216 36.8362 46.1874 36.813 46.1564 36.7869C46.125 36.7611 46.0972 36.7326 46.0726 36.7023C46.0484 36.6718 46.0277 36.6394 46.0106 36.6056C45.9939 36.5715 45.981 36.5367 45.9725 36.5005C45.9639 36.4646 45.9596 36.4281 45.9596 36.3916C45.9596 36.3548 45.9639 36.3183 45.9725 36.2824C45.981 36.2465 45.9939 36.2115 46.0106 36.1777C46.0277 36.1435 46.0484 36.1115 46.0726 36.0809C46.0972 36.0503 46.125 36.0222 46.1564 35.996C46.1874 35.9702 46.2216 35.9471 46.258 35.9266C46.2947 35.9061 46.3336 35.8889 46.3742 35.875C46.4152 35.8607 46.4573 35.8503 46.5004 35.8432C46.5435 35.8358 46.5874 35.8322 46.6316 35.8322H47.2914C47.3356 35.8322 47.3791 35.8358 47.4226 35.8432C47.4657 35.8503 47.5078 35.8607 47.5484 35.875C47.5894 35.8889 47.6279 35.9061 47.6647 35.9266C47.7014 35.9471 47.7352 35.9702 47.7666 35.996C47.7976 36.0222 47.8258 36.0503 47.85 36.0809C47.8746 36.1115 47.8953 36.1435 47.9124 36.1777C47.9292 36.2115 47.942 36.2465 47.9505 36.2824C47.9591 36.3183 47.9634 36.3548 47.9634 36.3916C47.9634 36.4281 47.9591 36.4646 47.9505 36.5005C47.942 36.5367 47.9292 36.5715 47.9124 36.6056C47.8953 36.6394 47.8746 36.6718 47.85 36.7023C47.8258 36.7326 47.7976 36.7611 47.7666 36.7869C47.7352 36.813 47.7014 36.8362 47.6647 36.8563C47.6279 36.8768 47.5894 36.894 47.5484 36.9083C47.5078 36.9222 47.4657 36.9329 47.4226 36.94C47.3791 36.9472 47.3356 36.9507 47.2914 36.9507ZM47.2914 34.2609H46.6316C46.5874 34.2609 46.5435 34.2573 46.5004 34.2502C46.4573 34.2431 46.4152 34.2324 46.3742 34.2185C46.3336 34.2045 46.2947 34.1873 46.258 34.1668C46.2216 34.1464 46.1874 34.1232 46.1564 34.0971C46.125 34.0713 46.0972 34.0431 46.0726 34.0125C46.0484 33.9819 46.0277 33.9496 46.0106 33.9158C45.9939 33.8819 45.981 33.8469 45.9725 33.811C45.9639 33.7748 45.9596 33.7386 45.9596 33.7018C45.9596 33.665 45.9639 33.6288 45.9725 33.5926C45.981 33.5567 45.9939 33.5217 46.0106 33.4878C46.0277 33.454 46.0484 33.4217 46.0726 33.3911C46.0972 33.3605 46.125 33.3323 46.1564 33.3065C46.1874 33.2804 46.2216 33.2573 46.258 33.2368C46.2947 33.2163 46.3336 33.1991 46.3742 33.1852C46.4152 33.1712 46.4573 33.1605 46.5004 33.1534C46.5435 33.1463 46.5874 33.1427 46.6316 33.1427H47.2914C47.3356 33.1427 47.3791 33.1463 47.4226 33.1534C47.4657 33.1605 47.5078 33.1712 47.5484 33.1852C47.5894 33.1991 47.6279 33.2163 47.6647 33.2368C47.7014 33.2573 47.7352 33.2804 47.7666 33.3065C47.7976 33.3323 47.8258 33.3605 47.85 33.3911C47.8746 33.4217 47.8953 33.454 47.9124 33.4878C47.9292 33.5217 47.942 33.5567 47.9505 33.5926C47.9591 33.6288 47.9634 33.665 47.9634 33.7018C47.9634 33.7386 47.9591 33.7748 47.9505 33.811C47.942 33.8469 47.9292 33.8819 47.9124 33.9158C47.8953 33.9496 47.8746 33.9819 47.85 34.0125C47.8258 34.0431 47.7976 34.0713 47.7666 34.0971C47.7352 34.1232 47.7014 34.1464 47.6647 34.1668C47.6279 34.1873 47.5894 34.2045 47.5484 34.2185C47.5078 34.2324 47.4657 34.2431 47.4226 34.2502C47.3791 34.2573 47.3356 34.2609 47.2914 34.2609Z" fill="#01B658"/>
<path d="M46.8612 26.8194C46.8616 26.9921 46.827 27.1603 46.7579 27.3233C46.6887 27.4865 46.5889 27.6354 46.4581 27.7699H36.9616C36.7955 27.7699 36.6301 27.7809 36.4657 27.8025C36.3014 27.8242 36.1403 27.8562 35.982 27.899C35.8237 27.9417 35.6704 27.9945 35.5221 28.0571C35.3738 28.1198 35.2323 28.1916 35.0976 28.2729C34.9628 28.3539 34.8363 28.4432 34.7186 28.5409C34.6007 28.6385 34.4923 28.7429 34.3943 28.8548C34.2959 28.9664 34.2089 29.0839 34.1326 29.2068C34.0563 29.3299 33.9922 29.4572 33.9401 29.5887C33.8877 29.7202 33.8481 29.854 33.8214 29.9905C33.7943 30.1273 33.7804 30.2647 33.7793 30.403C33.7783 30.5416 33.79 30.6793 33.8146 30.8161C33.8396 30.9529 33.877 31.0873 33.9273 31.2194C33.9775 31.3511 34.0396 31.479 34.1137 31.6031C34.1879 31.7268 34.2734 31.8452 34.3697 31.958C34.4663 32.0708 34.5729 32.1764 34.6891 32.2755C34.8056 32.3744 34.9304 32.4649 35.0641 32.5477V38.1709H32.079V28.6299C32.0779 28.5975 32.0736 28.5655 32.0668 28.5337C32.0668 28.5337 32.0576 28.5023 32.0536 28.4868C32.0408 28.4477 32.023 28.4106 31.9998 28.375L31.9717 28.3346C31.9282 28.28 31.8751 28.2334 31.8116 28.1948C31.8002 28.1868 31.7881 28.1794 31.7752 28.1726L31.735 28.1524L31.7228 28.1468C31.5799 28.0794 31.4505 27.9975 31.3346 27.9007C31.2705 27.8473 31.2117 27.7906 31.1578 27.7301C31.104 27.6696 31.0559 27.6061 31.0131 27.5396C30.9707 27.4731 30.934 27.4046 30.9037 27.3336C30.873 27.2627 30.8491 27.1903 30.8313 27.1164C30.8138 27.0428 30.8028 26.9683 30.7985 26.893C30.7939 26.8179 30.7964 26.7428 30.8049 26.6677C30.8138 26.5929 30.8295 26.519 30.8513 26.4457C30.8734 26.3727 30.9015 26.3015 30.9361 26.2321C30.9707 26.1623 31.0113 26.0953 31.058 26.0309C31.1044 25.9662 31.1564 25.9048 31.2138 25.8466C31.2712 25.7884 31.3332 25.7338 31.4002 25.6834C31.4672 25.6326 31.5382 25.5866 31.6134 25.5448C31.6886 25.5026 31.767 25.4658 31.849 25.4335C31.9307 25.4012 32.0148 25.3741 32.1014 25.3522C32.188 25.3302 32.2761 25.3139 32.3656 25.3026C32.455 25.2916 32.5449 25.286 32.6354 25.286H45.02C45.0806 25.286 45.1405 25.2884 45.2008 25.2931C45.2607 25.2982 45.3202 25.3053 45.3794 25.3151C45.4385 25.3249 45.497 25.3371 45.5548 25.3516C45.6125 25.3661 45.6692 25.3831 45.7252 25.4023C45.7808 25.4213 45.8353 25.443 45.8884 25.4664C45.9415 25.4902 45.9932 25.516 46.0435 25.5439C46.0937 25.5718 46.1419 25.6015 46.1886 25.6332C46.2353 25.6653 46.2798 25.6988 46.3226 25.7344C46.365 25.7697 46.4057 25.8071 46.4438 25.8457C46.4823 25.8846 46.518 25.9249 46.5515 25.9665C46.585 26.0083 46.616 26.0513 46.6445 26.0956C46.6727 26.1398 46.6987 26.1852 46.7215 26.2315C46.7447 26.2781 46.765 26.3253 46.7825 26.3733C46.7999 26.4211 46.8145 26.4698 46.8263 26.519C46.8381 26.5683 46.8466 26.6179 46.8527 26.668C46.8584 26.7179 46.8616 26.768 46.8612 26.8182V26.8194Z" fill="#01B658"/>
</svg>
