<svg width="32" height="33" viewBox="0 0 32 33" fill="none" xmlns="http://www.w3.org/2000/svg">
<path d="M32 27.8733C32 30.5554 29.8189 32.7366 27.1368 32.7366H4.86323C2.18113 32.7366 0 30.5554 0 27.8733V5.59981C0 2.91771 2.18113 0.736572 4.86323 0.736572H27.1368C29.8189 0.736572 32 2.91771 32 5.59981V27.8733Z" fill="white"/>
<path d="M27.3428 16.9891C27.3428 18.7586 27.3428 20.6338 26.9478 22.3475C26.6694 23.5551 25.6846 24.4397 24.4939 24.5732C21.6839 24.885 18.8351 24.8904 16.0027 24.885C13.165 24.885 10.3272 24.885 7.5118 24.5732C6.32661 24.4397 5.33607 23.5551 5.0579 22.3475C4.66284 20.6338 4.66284 18.7586 4.66284 16.9891C4.66284 15.2198 4.66844 13.3446 5.0579 11.6309C5.33607 10.4233 6.32102 9.5387 7.5118 9.40521C10.3272 9.08789 13.1706 9.08789 16.0027 9.08789C18.8351 9.08789 21.6783 9.08789 24.4939 9.40521C25.679 9.5387 26.6694 10.4233 26.9478 11.6309C27.3428 13.3446 27.3428 15.2198 27.3428 16.9891Z" fill="#01B658"/>
<path d="M13.6157 12.772V21.2464L20.1983 17.0064L13.6157 12.772Z" fill="white"/>
</svg>
