<svg width="31" height="32" viewBox="0 0 31 32" fill="none" xmlns="http://www.w3.org/2000/svg">
<mask id="mask0_250_888" style="mask-type:luminance" maskUnits="userSpaceOnUse" x="0" y="0" width="31" height="32">
<path d="M0.106201 0.872681H30.0124V31.1245H0.106201V0.872681Z" fill="white"/>
</mask>
<g mask="url(#mask0_250_888)">
<path d="M6.76791 9.16034C6.76807 9.025 6.77146 8.88966 6.77825 8.75447C6.78504 8.61929 6.79508 8.48441 6.8085 8.34969C6.82193 8.21497 6.83859 8.08071 6.8585 7.94676C6.87856 7.81296 6.90171 7.67963 6.92825 7.54676C6.9548 7.41404 6.98458 7.2821 7.01745 7.15077C7.05048 7.01944 7.08659 6.88904 7.12609 6.75957C7.16545 6.63009 7.20788 6.50154 7.25356 6.37423C7.29924 6.24676 7.34801 6.12052 7.39986 5.99552C7.45171 5.87037 7.50665 5.74676 7.56452 5.62438C7.62254 5.50201 7.68335 5.38117 7.74724 5.26188C7.81112 5.14244 7.87779 5.02469 7.94739 4.90864C8.01714 4.79259 8.08952 4.67824 8.16467 4.56574C8.23998 4.45324 8.31791 4.34259 8.39862 4.2338C8.47918 4.12515 8.56251 4.01836 8.64832 3.91373C8.73427 3.8091 8.8227 3.70663 8.91359 3.60633C9.00449 3.50617 9.0977 3.40802 9.19353 3.31234C9.28921 3.21667 9.38721 3.1233 9.48751 3.03241C9.58782 2.94151 9.69029 2.85309 9.79477 2.76713C9.8994 2.68133 10.0062 2.59799 10.1148 2.51728C10.2235 2.43657 10.3341 2.35864 10.4466 2.28349C10.5593 2.20818 10.6735 2.1358 10.7895 2.06605C10.9057 1.99645 11.0233 1.92978 11.1428 1.86589C11.2621 1.80201 11.3829 1.74105 11.5053 1.68318C11.6276 1.62515 11.7512 1.57022 11.8762 1.51836C12.0014 1.46651 12.1276 1.41775 12.255 1.37207C12.3824 1.32639 12.5108 1.2838 12.6404 1.24444C12.7699 1.20494 12.9003 1.16883 13.0316 1.1358C13.1628 1.10278 13.2949 1.07299 13.4276 1.04645C13.5604 1.01991 13.6937 0.996758 13.8275 0.976697C13.9614 0.956789 14.0957 0.939968 14.2304 0.926542C14.3651 0.913271 14.5 0.903085 14.6352 0.896295C14.7705 0.889505 14.9057 0.88611 15.0411 0.885956C25.9762 1.27268 25.9979 17.0133 15.0691 17.4335C14.9335 17.4338 14.7979 17.4307 14.6624 17.4244C14.5269 17.4181 14.3917 17.4085 14.2566 17.3954C14.1216 17.3824 13.9869 17.3662 13.8528 17.3466C13.7185 17.327 13.5849 17.304 13.4517 17.2779C13.3187 17.2517 13.1863 17.2224 13.0546 17.1897C12.923 17.1569 12.7921 17.1211 12.6622 17.0819C12.5324 17.0429 12.4036 17.0006 12.2756 16.9552C12.1479 16.9097 12.0213 16.8613 11.8958 16.8096C11.7704 16.7579 11.6463 16.7032 11.5236 16.6454C11.4008 16.5877 11.2796 16.527 11.1597 16.4633C11.04 16.3995 10.9219 16.3329 10.8054 16.2634C10.6889 16.1938 10.5742 16.1216 10.4613 16.0465C10.3483 15.9713 10.2374 15.8934 10.1283 15.8128C10.0191 15.7321 9.91205 15.6489 9.80711 15.563C9.70202 15.4772 9.59924 15.3887 9.49862 15.2978C9.39785 15.2069 9.29955 15.1136 9.20341 15.0179C9.10742 14.9221 9.01375 14.8241 8.92239 14.7236C8.83119 14.6233 8.74245 14.5207 8.65619 14.416C8.56992 14.3113 8.48628 14.2045 8.40541 14.0957C8.3244 13.9869 8.24616 13.8761 8.17054 13.7634C8.09508 13.6508 8.02239 13.5363 7.95248 13.4201C7.88258 13.3039 7.81545 13.186 7.7514 13.0664C7.6872 12.9469 7.62609 12.8258 7.56791 12.7032C7.50974 12.5807 7.45464 12.4568 7.40264 12.3315C7.35048 12.2063 7.30156 12.0798 7.25572 11.9522C7.20974 11.8245 7.16714 11.6958 7.12748 11.566C7.08798 11.4363 7.05171 11.3056 7.01853 11.1741C6.98535 11.0426 6.95557 10.9102 6.92887 10.7772C6.90233 10.6443 6.87903 10.5106 6.85896 10.3765C6.8389 10.2423 6.82208 10.1077 6.80866 9.97268C6.79523 9.83781 6.78504 9.70247 6.77825 9.56713C6.77146 9.43163 6.76807 9.29599 6.76791 9.16034ZM23.4148 17.4373C23.36 17.4037 23.3031 17.3742 23.2442 17.3488C23.185 17.3233 23.1245 17.3023 23.0624 17.2856C23.0003 17.269 22.9374 17.2568 22.8736 17.2491C22.8097 17.2415 22.7457 17.2384 22.6813 17.2401C22.6171 17.2417 22.5533 17.2478 22.49 17.2586C22.4266 17.2694 22.3642 17.2846 22.3031 17.3043C22.242 17.3241 22.1824 17.3481 22.1247 17.3764C22.067 17.4048 22.0116 17.437 21.9585 17.4733C21.8354 17.5733 21.7102 17.6705 21.5827 17.7653C21.4554 17.8599 21.3261 17.9517 21.1948 18.0407C21.0634 18.1298 20.9304 18.2159 20.7954 18.2992C20.6604 18.3826 20.5236 18.463 20.385 18.5403C20.2466 18.6177 20.1065 18.6921 19.9648 18.7636C19.8232 18.8349 19.68 18.9032 19.5354 18.9684C19.3908 19.0336 19.2448 19.0957 19.0975 19.1546C18.9502 19.2136 18.8017 19.2693 18.652 19.3219C18.5023 19.3744 18.3516 19.4236 18.1997 19.4698C18.0479 19.5157 17.8952 19.5585 17.7415 19.598C17.5878 19.6375 17.4333 19.6736 17.2783 19.7063C17.123 19.7392 16.9671 19.7687 16.8107 19.7948C16.6542 19.8208 16.4971 19.8435 16.3397 19.863C16.1823 19.8823 16.0244 19.8981 15.8662 19.9106C15.708 19.9233 15.5497 19.9324 15.3912 19.9381C15.2327 19.9438 15.0741 19.9461 14.9154 19.9451C14.7568 19.9438 14.5982 19.9394 14.4398 19.9315C14.2813 19.9235 14.1232 19.9122 13.9651 19.8974C13.8073 19.8826 13.6496 19.8645 13.4925 19.8429C13.3352 19.8213 13.1786 19.7964 13.0225 19.7682C12.8664 19.7398 12.711 19.7082 12.5562 19.6733C12.4016 19.6383 12.2475 19.6 12.0945 19.5583C11.9414 19.5167 11.7892 19.4718 11.6381 19.4236C11.4869 19.3755 11.3369 19.3241 11.188 19.2694C11.0391 19.2148 10.8912 19.1569 10.7448 19.096C10.5983 19.035 10.4533 18.9708 10.3096 18.9037C10.1659 18.8364 10.0238 18.766 9.88304 18.6927C9.74245 18.6194 9.60341 18.5431 9.46606 18.4637C9.32856 18.3843 9.19307 18.302 9.05912 18.2168C8.92532 18.1316 8.79338 18.0435 8.66344 17.9528C8.53335 17.8619 8.40526 17.7682 8.27934 17.6718C8.15325 17.5755 8.02949 17.4764 7.90773 17.3747C7.81575 17.3324 7.72023 17.3017 7.62085 17.2827C7.52162 17.2637 7.42146 17.2569 7.32054 17.2622C7.21946 17.2674 7.12069 17.2847 7.02393 17.314C6.92717 17.3434 6.8352 17.384 6.74832 17.4355C6.49415 17.6046 6.24523 17.7815 6.00187 17.9659C5.7585 18.1503 5.521 18.3421 5.28952 18.5412C5.05804 18.7403 4.83273 18.9463 4.6139 19.1593C4.39508 19.3722 4.18288 19.5917 3.97764 19.8177C3.77224 20.0438 3.57409 20.2759 3.38304 20.5142C3.19199 20.7523 3.0085 20.9963 2.83258 21.2458C2.65649 21.4954 2.48844 21.75 2.3281 22.01C2.16776 22.2699 2.0156 22.5344 1.87162 22.8037C1.72764 23.073 1.59199 23.3465 1.46483 23.6241C1.33767 23.9017 1.21915 24.183 1.10943 24.4681C0.99955 24.7529 0.898624 25.0409 0.806495 25.3321C0.714519 25.6233 0.631495 25.917 0.557421 26.2133C0.483501 26.5096 0.418686 26.8079 0.36313 27.108C0.307421 27.4083 0.261124 27.71 0.224087 28.0131C0.187204 28.3162 0.159427 28.6202 0.141217 28.925C0.122853 29.2299 0.114056 29.535 0.114519 29.8403C0.114519 29.8819 0.116526 29.9235 0.120538 29.965C0.124705 30.0063 0.130723 30.0475 0.138902 30.0884C0.146927 30.1292 0.157112 30.1696 0.169149 30.2094C0.181186 30.2492 0.195229 30.2884 0.211124 30.3269C0.227019 30.3653 0.244766 30.4029 0.264365 30.4397C0.283964 30.4764 0.305414 30.512 0.328563 30.5466C0.351711 30.5813 0.376402 30.6147 0.402791 30.6469C0.429334 30.679 0.457112 30.7099 0.486587 30.7394C0.516063 30.7688 0.546927 30.7968 0.579026 30.8231C0.611279 30.8495 0.644612 30.8742 0.679334 30.8974C0.713902 30.9205 0.74955 30.942 0.786279 30.9616C0.823007 30.9812 0.860661 30.9989 0.899087 31.0148C0.937513 31.0307 0.976711 31.0448 1.01653 31.0568C1.05634 31.069 1.09677 31.079 1.13767 31.087C1.17841 31.0952 1.21961 31.1012 1.26097 31.1054C1.30248 31.1094 1.34399 31.1114 1.38566 31.1114H28.7387C28.7804 31.1114 28.8219 31.1094 28.8634 31.1054C28.9048 31.1012 28.946 31.0952 28.9869 31.087C29.0276 31.079 29.0681 31.069 29.1079 31.0568C29.1477 31.0448 29.1869 31.0307 29.2253 31.0148C29.2637 30.9989 29.3014 30.9812 29.3381 30.9616C29.3749 30.942 29.4105 30.9205 29.4452 30.8974C29.4798 30.8742 29.5131 30.8495 29.5454 30.8231C29.5776 30.7968 29.6083 30.7688 29.6378 30.7394C29.6673 30.7099 29.6952 30.679 29.7216 30.6469C29.748 30.6147 29.7729 30.5813 29.7958 30.5466C29.819 30.512 29.8404 30.4764 29.86 30.4397C29.8796 30.4029 29.8974 30.3653 29.9133 30.3269C29.9293 30.2884 29.9432 30.2492 29.9553 30.2094C29.9675 30.1696 29.9775 30.1292 29.9857 30.0884C29.9937 30.0475 29.9999 30.0063 30.0039 29.965C30.0079 29.9235 30.0099 29.8819 30.0099 29.8403C30.0097 29.5356 30.0002 29.2312 29.9813 28.9272C29.9625 28.623 29.9346 28.3198 29.8972 28.0173C29.8599 27.715 29.8134 27.4139 29.7577 27.1144C29.7022 26.8148 29.6374 26.5173 29.5636 26.2216C29.4897 25.9261 29.407 25.6329 29.3153 25.3423C29.2236 25.0519 29.123 24.7644 29.0139 24.4798C28.9046 24.1954 28.7867 23.9145 28.6604 23.6373C28.534 23.36 28.3992 23.0869 28.2562 22.8179C28.1131 22.5489 27.9621 22.2844 27.8029 22.0247C27.6437 21.7648 27.4767 21.5102 27.302 21.2605C27.1273 21.011 26.9451 20.7668 26.7556 20.5284C26.5659 20.2898 26.3692 20.0574 26.1654 19.8309C25.9616 19.6043 25.7511 19.3843 25.5338 19.1707C25.3167 18.9569 25.0931 18.7502 24.8633 18.5502C24.6333 18.35 24.3977 18.1573 24.156 17.9716C23.9144 17.786 23.6675 17.6079 23.4148 17.4373Z" fill="#016C62"/>
</g>
</svg>
