<svg width="32" height="33" viewBox="0 0 32 33" fill="none" xmlns="http://www.w3.org/2000/svg">
<mask id="mask0_75_2616" style="mask-type:luminance" maskUnits="userSpaceOnUse" x="0" y="0" width="32" height="33">
<path d="M0 0.736572H32V32.7366H0V0.736572Z" fill="white"/>
</mask>
<g mask="url(#mask0_75_2616)">
<path d="M30.2214 32.7234C31.1962 32.7234 31.9867 31.9329 31.9867 30.958V2.50203C31.9867 1.52688 31.1962 0.736572 30.2214 0.736572H1.76545C0.790101 0.736572 0 1.52688 0 2.50203V30.958C0 31.9329 0.790101 32.7234 1.76545 32.7234H30.2214Z" fill="white"/>
</g>
<mask id="mask1_75_2616" style="mask-type:luminance" maskUnits="userSpaceOnUse" x="12" y="5" width="16" height="28">
<path d="M12.8916 5.56055H27.0621V32.7367H12.8916V5.56055Z" fill="white"/>
</mask>
<g mask="url(#mask1_75_2616)">
<path d="M22.0702 32.7238V20.3367H26.228L26.8504 15.5093H22.0702V12.4272C22.0702 11.0297 22.4583 10.0771 24.4626 10.0771L27.0189 10.0759V5.75836C26.5767 5.69957 25.0593 5.56805 23.2939 5.56805C19.6082 5.56805 17.085 7.81775 17.085 11.9493V15.5093H12.9165V20.3367H17.085V32.7236H22.0702V32.7238Z" fill="#01B658"/>
</g>
</svg>
