<svg width="60" height="48" viewBox="0 0 60 48" fill="none" xmlns="http://www.w3.org/2000/svg">
<mask id="mask0_47_173" style="mask-type:luminance" maskUnits="userSpaceOnUse" x="9" y="9" width="42" height="39">
<path d="M9.30872 9.16803H50.9221V47.4504H9.30872V9.16803Z" fill="white"/>
</mask>
<g mask="url(#mask0_47_173)">
<path d="M50.8758 24.5341L30.1218 9.22437L9.35541 24.5406V46.4259C9.35541 46.9912 9.90367 47.4444 10.582 47.4444H23.5602V37.8487C23.5602 37.2834 24.1045 36.8267 24.7833 36.8267H35.4472C36.1256 36.8267 36.6699 37.2834 36.6699 37.8487V47.4444H49.652C50.3303 47.4444 50.8747 46.9912 50.8747 46.4259V24.5332L50.8758 24.5341Z" fill="#01B658"/>
</g>
<mask id="mask1_47_173" style="mask-type:luminance" maskUnits="userSpaceOnUse" x="0" y="0" width="60" height="26">
<path d="M0.548035 0.842773H59.6828V25.5016H0.548035V0.842773Z" fill="white"/>
</mask>
<g mask="url(#mask1_47_173)">
<path d="M30.001 0.846008L0.548035 22.5678L3.65043 25.4831L30.1219 5.95914L56.5865 25.4831L59.6828 22.5678L30.2366 0.846008L30.1222 0.956402L30.0017 0.846008H30.001Z" fill="#01B658"/>
</g>
<path d="M9.35552 3.97296H16.8215L16.7566 7.65632L9.35516 13.2256V3.97296H9.35552Z" fill="#01B658"/>
</svg>
