<svg width="60" height="48" viewBox="0 0 60 48" fill="none" xmlns="http://www.w3.org/2000/svg">
<path d="M30.6305 4.95257C30.4016 4.6226 29.8295 4.6226 29.6006 4.95257L25.7546 10.4978C24.6509 9.53843 23.1644 8.88661 21.4991 8.71227L25.48 2.97214C27.5405 0.00180113 32.6907 0.00180113 34.7508 2.97214L46.9408 20.5481C47.375 19.6499 48.5468 19.13 49.7097 19.366C50.9861 19.6249 51.7687 20.6962 51.4578 21.7588L50.3178 25.652C50.1642 26.1775 49.8187 26.6232 49.3587 26.9494C48.9601 27.0888 48.5798 27.2572 48.2217 27.4521C47.7642 27.5579 47.2697 27.5735 46.7744 27.4805L42.4136 26.6615C41.132 26.4211 40.3273 25.361 40.6165 24.294C40.8686 23.3628 41.8708 22.7343 42.9737 22.7493L30.6305 4.95257Z" fill="#01B658"/>
<path d="M53.7055 38.2229L54.8373 39.8553C55.0662 40.1853 54.7804 40.5979 54.3222 40.5979H36.332C36.8663 39.8391 36.7423 38.8479 35.9604 38.197C35.0317 37.4239 33.5253 37.4239 32.5961 38.197L29.4424 40.8228C28.2811 41.7896 28.2811 43.3568 29.4424 44.3233L32.5965 46.9487C33.5253 47.7224 35.0317 47.7224 35.9604 46.9487C36.7389 46.3009 36.8652 45.316 36.3392 44.5584H54.3222C58.4424 44.5584 61.0181 40.8452 58.9576 37.8749L57.7288 36.1031C56.7352 37.1529 55.3251 37.9173 53.7055 38.2229Z" fill="#01B658"/>
<path d="M14.6597 19.3075C15.2726 19.1924 15.8851 19.2438 16.4272 19.4266C16.6999 19.5903 16.9869 19.7388 17.2866 19.8698C17.7253 20.1929 18.0539 20.627 18.203 21.136L19.343 25.0292C19.654 26.0918 18.8713 27.1631 17.595 27.4219C16.4358 27.6574 15.2681 27.1415 14.8301 26.2489L5.39336 39.8553C5.16446 40.1853 5.45068 40.5979 5.90849 40.5979H14.3663C14.1659 41.1462 14.058 41.7275 14.058 42.3307C14.058 43.1182 14.2423 43.8701 14.5769 44.5584H5.90849C1.78822 44.5584 -0.787045 40.8452 1.27309 37.8749L10.8694 24.0384C9.76239 24.0577 8.75499 23.428 8.50173 22.4939C8.21251 21.427 9.01724 20.3672 10.2989 20.1265L14.6597 19.3075Z" fill="#01B658"/>
<path d="M25.3579 14.6065C25.3579 16.794 23.2277 18.567 20.6 18.567C17.9723 18.567 15.8425 16.794 15.8425 14.6065C15.8425 12.419 17.9723 10.6459 20.6 10.6459C23.2277 10.6459 25.3579 12.419 25.3579 14.6065Z" fill="#01B658"/>
<path d="M56.878 32.4292C56.878 34.6164 54.7474 36.3898 52.1201 36.3898C49.4924 36.3898 47.3622 34.6164 47.3622 32.4292C47.3622 30.2417 49.4924 28.4687 52.1201 28.4687C54.7474 28.4687 56.878 30.2417 56.878 32.4292Z" fill="#01B658"/>
<path d="M21.1949 46.2912C23.8223 46.2912 25.9524 44.5179 25.9524 42.3307C25.9524 40.1431 23.8223 38.3701 21.1949 38.3701C18.5672 38.3701 16.437 40.1431 16.437 42.3307C16.437 44.5179 18.5672 46.2912 21.1949 46.2912Z" fill="#01B658"/>
<path d="M31.0745 15.3456C32.0234 14.9446 33.1713 15.1067 33.9082 15.7458C37.1211 18.5318 38.762 22.5051 37.9262 26.6054C37.1518 30.405 34.0453 34.2623 29.6831 35.8108L31.584 26.9092C31.699 26.3706 31.2678 25.8566 30.6212 25.7608C29.9742 25.6651 29.3567 26.0241 29.2417 26.5624L27.315 35.5856C23.5131 33.2721 22.2409 28.1118 22.9782 24.494C23.814 20.3937 26.9377 17.0934 31.0745 15.3456Z" fill="#01B658"/>
</svg>
